<svg width="25" height="25" viewBox="0 0 25 25" fill="none" xmlns="http://www.w3.org/2000/svg">
<path d="M13.8276 18.3511C12.9092 18.6494 11.9794 18.7105 11.0894 18.5885C8.72891 18.265 6.66734 16.5893 5.97844 14.1646L8.19265 13.5713C8.31458 13.5386 8.33929 13.3675 8.23561 13.2829L3.66088 9.62164C3.58455 9.56112 3.47238 9.59118 3.43654 9.68175L1.30344 15.1429C1.25592 15.2679 1.3629 15.4038 1.48482 15.3712L3.70392 14.7766C4.73723 18.4673 8.07012 20.9176 11.7328 20.9994C12.8349 21.0254 13.9676 20.8342 15.0767 20.3986C16.9608 19.6561 18.4582 18.2702 19.392 16.5755L17.5121 15.0706C16.8019 16.5852 15.4996 17.8117 13.8276 18.3511Z" fill="black"/>
<path d="M20.4582 9.73549C19.4249 6.04477 16.092 3.59444 12.4293 3.51272C11.3272 3.48673 10.1945 3.67791 9.08541 4.11351C7.2013 4.85601 5.7039 6.24192 4.77011 7.93653L6.65004 9.44145C7.35846 7.92998 8.66251 6.70035 10.3345 6.16096C11.2529 5.86263 12.1827 5.80158 13.0727 5.92358C15.4332 6.2471 17.4948 7.92275 18.1837 10.3475L15.9695 10.9408C15.8475 10.9735 15.8228 11.1446 15.9265 11.2292L20.5012 14.8904C20.5776 14.951 20.6897 14.9209 20.7256 14.8303L22.8587 9.3692C22.9062 9.24415 22.7974 9.11135 22.6773 9.14093L20.4582 9.73549Z" fill="black"/>
</svg>
