<svg width="135" height="38" viewBox="0 0 135 38" fill="none" xmlns="http://www.w3.org/2000/svg">
<rect width="135" height="38" rx="6" fill="black"/>
<path d="M26.7973 19.3011C26.8081 18.4664 27.0298 17.6481 27.4418 16.9221C27.8538 16.1962 28.4428 15.5862 29.1539 15.149C28.7021 14.5039 28.1062 13.9729 27.4134 13.5984C26.7205 13.2238 25.9499 13.016 25.1627 12.9914C23.4835 12.8151 21.8555 13.9962 20.9998 13.9962C20.1275 13.9962 18.81 13.0089 17.3913 13.0381C16.4736 13.0677 15.5793 13.3346 14.7954 13.8126C14.0115 14.2907 13.3649 14.9636 12.9184 15.7659C10.9844 19.1143 12.427 24.0354 14.2796 26.742C15.2065 28.0674 16.2898 29.5478 17.7072 29.4953C19.0943 29.4378 19.6123 28.6108 21.2866 28.6108C22.9454 28.6108 23.4314 29.4953 24.8776 29.4619C26.366 29.4378 27.3038 28.1307 28.1981 26.7928C28.8641 25.8484 29.3766 24.8047 29.7166 23.7003C28.8518 23.3345 28.1139 22.7224 27.5948 21.9401C27.0757 21.1578 26.7983 20.24 26.7973 19.3011Z" fill="white"/>
<path d="M24.0657 11.2113C24.8772 10.2371 25.277 8.98494 25.1802 7.7207C23.9404 7.85092 22.7951 8.44348 21.9726 9.38031C21.5705 9.83798 21.2625 10.3704 21.0662 10.9472C20.87 11.524 20.7893 12.1337 20.8289 12.7417C21.449 12.7481 22.0626 12.6137 22.6232 12.3486C23.1839 12.0835 23.6771 11.6946 24.0657 11.2113Z" fill="white"/>
<path d="M47.3307 26.1401H42.5973L41.4606 29.4965H39.4557L43.9391 17.0785H46.0221L50.5055 29.4965H48.4664L47.3307 26.1401ZM43.0875 24.5913H46.8395L44.9899 19.144H44.9381L43.0875 24.5913Z" fill="white"/>
<path d="M60.1881 24.9702C60.1881 27.7836 58.6823 29.5913 56.4098 29.5913C55.8341 29.6214 55.2616 29.4888 54.7578 29.2086C54.254 28.9285 53.8393 28.5121 53.5612 28.0073H53.5182V32.4916H51.6598V20.4428H53.4586V21.9487H53.4928C53.7838 21.4462 54.2055 21.032 54.7131 20.7502C55.2207 20.4683 55.7953 20.3294 56.3756 20.3481C58.6734 20.3481 60.1881 22.1645 60.1881 24.9702ZM58.278 24.9702C58.278 23.1372 57.3307 21.9321 55.8854 21.9321C54.4654 21.9321 53.5104 23.1625 53.5104 24.9702C53.5104 26.7944 54.4654 28.0161 55.8854 28.0161C57.3307 28.0161 58.278 26.8198 58.278 24.9702Z" fill="white"/>
<path d="M70.153 24.9702C70.153 27.7836 68.6471 29.5913 66.3746 29.5913C65.799 29.6214 65.2265 29.4888 64.7227 29.2086C64.2189 28.9285 63.8042 28.5121 63.526 28.0073H63.483V32.4916H61.6246V20.4428H63.4234V21.9487H63.4576C63.7486 21.4462 64.1703 21.032 64.6779 20.7502C65.1856 20.4683 65.7601 20.3294 66.3404 20.3481C68.6383 20.3481 70.153 22.1645 70.153 24.9702ZM68.2428 24.9702C68.2428 23.1372 67.2955 21.9321 65.8502 21.9321C64.4303 21.9321 63.4752 23.1625 63.4752 24.9702C63.4752 26.7944 64.4303 28.0161 65.8502 28.0161C67.2955 28.0161 68.2428 26.8198 68.2428 24.9702H68.2428Z" fill="white"/>
<path d="M76.7389 26.0366C76.8766 27.268 78.0729 28.0766 79.7076 28.0766C81.2741 28.0766 82.401 27.268 82.401 26.1576C82.401 25.1937 81.7213 24.6166 80.1119 24.2211L78.5026 23.8334C76.2223 23.2826 75.1637 22.2162 75.1637 20.4857C75.1637 18.3432 77.0309 16.8715 79.6823 16.8715C82.3063 16.8715 84.1051 18.3432 84.1656 20.4857H82.2896C82.1774 19.2465 81.1529 18.4984 79.6559 18.4984C78.1588 18.4984 77.1344 19.2553 77.1344 20.3568C77.1344 21.2348 77.7887 21.7514 79.3893 22.1468L80.7574 22.4828C83.3053 23.0853 84.3639 24.1088 84.3639 25.9252C84.3639 28.2484 82.5133 29.7035 79.5699 29.7035C76.816 29.7035 74.9566 28.2826 74.8365 26.0365L76.7389 26.0366Z" fill="white"/>
<path d="M88.3746 18.3002V20.4428H90.0963V21.9145H88.3746V26.9057C88.3746 27.6811 88.7194 28.0424 89.4762 28.0424C89.6806 28.0389 89.8846 28.0245 90.0875 27.9994V29.4623C89.7472 29.5259 89.4014 29.5547 89.0553 29.5483C87.2223 29.5483 86.5074 28.8598 86.5074 27.1039V21.9145H85.191V20.4428H86.5074V18.3002H88.3746Z" fill="white"/>
<path d="M91.0934 24.9702C91.0934 22.1215 92.7711 20.3315 95.3874 20.3315C98.0124 20.3315 99.6823 22.1215 99.6823 24.9702C99.6823 27.8266 98.0211 29.6088 95.3874 29.6088C92.7545 29.6088 91.0934 27.8266 91.0934 24.9702ZM97.7887 24.9702C97.7887 23.0161 96.8932 21.8627 95.3874 21.8627C93.8815 21.8627 92.987 23.0249 92.987 24.9702C92.987 26.9321 93.8815 28.0766 95.3874 28.0766C96.8932 28.0766 97.7887 26.9321 97.7887 24.9702H97.7887Z" fill="white"/>
<path d="M101.214 20.4428H102.987V21.9838H103.03C103.15 21.5025 103.432 21.0772 103.828 20.7793C104.225 20.4814 104.712 20.3291 105.208 20.3481C105.422 20.3473 105.635 20.3706 105.844 20.4174V22.1557C105.574 22.0731 105.292 22.0351 105.009 22.0434C104.739 22.0324 104.47 22.08 104.22 22.1829C103.971 22.2858 103.746 22.4415 103.562 22.6394C103.378 22.8373 103.239 23.0727 103.155 23.3294C103.07 23.586 103.042 23.8579 103.073 24.1264V29.4965H101.214L101.214 20.4428Z" fill="white"/>
<path d="M114.413 26.8373C114.163 28.4809 112.562 29.6088 110.514 29.6088C107.88 29.6088 106.246 27.8442 106.246 25.0131C106.246 22.1733 107.889 20.3315 110.436 20.3315C112.941 20.3315 114.516 22.0522 114.516 24.7973V25.434H108.122V25.5463C108.092 25.8795 108.134 26.2152 108.244 26.531C108.354 26.8469 108.53 27.1357 108.761 27.3782C108.991 27.6207 109.27 27.8115 109.58 27.9378C109.89 28.0641 110.223 28.1231 110.557 28.1108C110.996 28.1519 111.437 28.0502 111.814 27.8208C112.191 27.5913 112.483 27.2464 112.648 26.8373L114.413 26.8373ZM108.13 24.1352H112.657C112.674 23.8356 112.628 23.5358 112.523 23.2546C112.419 22.9734 112.257 22.7168 112.049 22.5011C111.84 22.2853 111.589 22.115 111.312 22.0007C111.034 21.8865 110.736 21.8309 110.436 21.8373C110.134 21.8355 109.834 21.8937 109.553 22.0084C109.273 22.1232 109.019 22.2922 108.805 22.5059C108.59 22.7195 108.42 22.9735 108.305 23.2531C108.189 23.5328 108.13 23.8326 108.13 24.1352V24.1352Z" fill="white"/>
<path d="M47.7878 5.86V12.2H48.6978V14.88H47.8378V13H42.9278V14.88H42.0678V12.2H42.6178C42.8578 11.7867 43.0845 11.3233 43.2978 10.81C43.5178 10.2967 43.7111 9.76 43.8778 9.2C44.0445 8.63333 44.1811 8.06667 44.2878 7.5C44.3945 6.93333 44.4611 6.38667 44.4878 5.86H47.7878ZM45.2778 6.67C45.2511 7.05667 45.1845 7.49333 45.0778 7.98C44.9778 8.46667 44.8478 8.96667 44.6878 9.48C44.5345 9.98667 44.3611 10.4767 44.1678 10.95C43.9811 11.4233 43.7811 11.84 43.5678 12.2H46.8978V6.67H45.2778ZM54.4319 10.31C54.4319 11.1967 54.2052 11.8833 53.7519 12.37C53.3052 12.8567 52.6985 13.1 51.9319 13.1C51.4585 13.1 51.0352 12.9933 50.6619 12.78C50.2952 12.56 50.0052 12.2433 49.7919 11.83C49.5785 11.41 49.4719 10.9033 49.4719 10.31C49.4719 9.42333 49.6952 8.74 50.1419 8.26C50.5885 7.78 51.1952 7.54 51.9619 7.54C52.4485 7.54 52.8752 7.65 53.2419 7.87C53.6152 8.08333 53.9052 8.39667 54.1119 8.81C54.3252 9.21667 54.4319 9.71667 54.4319 10.31ZM50.3819 10.31C50.3819 10.9433 50.5052 11.4467 50.7519 11.82C51.0052 12.1867 51.4052 12.37 51.9519 12.37C52.4919 12.37 52.8885 12.1867 53.1419 11.82C53.3952 11.4467 53.5219 10.9433 53.5219 10.31C53.5219 9.67667 53.3952 9.18 53.1419 8.82C52.8885 8.46 52.4885 8.28 51.9419 8.28C51.3952 8.28 50.9985 8.46 50.7519 8.82C50.5052 9.18 50.3819 9.67667 50.3819 10.31ZM57.9766 13.1C57.5032 13.1 57.0799 13.0033 56.7066 12.81C56.3399 12.6167 56.0499 12.3167 55.8366 11.91C55.6299 11.5033 55.5266 10.9833 55.5266 10.35C55.5266 9.69 55.6366 9.15333 55.8566 8.74C56.0766 8.32667 56.3732 8.02333 56.7466 7.83C57.1266 7.63667 57.5566 7.54 58.0366 7.54C58.3099 7.54 58.5732 7.57 58.8266 7.63C59.0799 7.68333 59.2866 7.75 59.4466 7.83L59.1766 8.56C59.0166 8.5 58.8299 8.44333 58.6166 8.39C58.4032 8.33667 58.2032 8.31 58.0166 8.31C56.9632 8.31 56.4366 8.98667 56.4366 10.34C56.4366 10.9867 56.5632 11.4833 56.8166 11.83C57.0766 12.17 57.4599 12.34 57.9666 12.34C58.2599 12.34 58.5166 12.31 58.7366 12.25C58.9632 12.19 59.1699 12.1167 59.3566 12.03V12.81C59.1766 12.9033 58.9766 12.9733 58.7566 13.02C58.5432 13.0733 58.2832 13.1 57.9766 13.1ZM64.3313 8.38H62.5813V13H61.7113V8.38H59.9813V7.64H64.3313V8.38ZM64.5471 7.64H65.4871L66.6471 10.69C66.7471 10.9567 66.8371 11.2133 66.9171 11.46C66.9971 11.7 67.0571 11.93 67.0971 12.15H67.1371C67.1771 11.9833 67.2404 11.7667 67.3271 11.5C67.4138 11.2267 67.5038 10.9533 67.5971 10.68L68.6871 7.64H69.6371L67.3271 13.74C67.1404 14.2467 66.8971 14.65 66.5971 14.95C66.3038 15.25 65.8971 15.4 65.3771 15.4C65.2171 15.4 65.0771 15.39 64.9571 15.37C64.8371 15.3567 64.7338 15.34 64.6471 15.32V14.62C64.7204 14.6333 64.8071 14.6467 64.9071 14.66C65.0138 14.6733 65.1238 14.68 65.2371 14.68C65.5438 14.68 65.7904 14.5933 65.9771 14.42C66.1704 14.2467 66.3204 14.0167 66.4271 13.73L66.7071 13.02L64.5471 7.64ZM75.0148 7.64V13H74.1348V8.39H71.3648V13H70.4848V7.64H75.0148ZM77.605 7.64V9.87H80.515V7.64H81.395V13H80.515V10.61H77.605V13H76.725V7.64H77.605ZM87.7522 10.31C87.7522 11.1967 87.5255 11.8833 87.0722 12.37C86.6255 12.8567 86.0189 13.1 85.2522 13.1C84.7789 13.1 84.3555 12.9933 83.9822 12.78C83.6155 12.56 83.3255 12.2433 83.1122 11.83C82.8989 11.41 82.7922 10.9033 82.7922 10.31C82.7922 9.42333 83.0155 8.74 83.4622 8.26C83.9089 7.78 84.5155 7.54 85.2822 7.54C85.7689 7.54 86.1955 7.65 86.5622 7.87C86.9355 8.08333 87.2255 8.39667 87.4322 8.81C87.6455 9.21667 87.7522 9.71667 87.7522 10.31ZM83.7022 10.31C83.7022 10.9433 83.8255 11.4467 84.0722 11.82C84.3255 12.1867 84.7255 12.37 85.2722 12.37C85.8122 12.37 86.2089 12.1867 86.4622 11.82C86.7155 11.4467 86.8422 10.9433 86.8422 10.31C86.8422 9.67667 86.7155 9.18 86.4622 8.82C86.2089 8.46 85.8089 8.28 85.2622 8.28C84.7155 8.28 84.3189 8.46 84.0722 8.82C83.8255 9.18 83.7022 9.67667 83.7022 10.31ZM95.3905 8.99C95.3905 9.32333 95.2905 9.58333 95.0905 9.77C94.8905 9.95667 94.6338 10.0833 94.3205 10.15V10.19C94.6538 10.2367 94.9438 10.3567 95.1905 10.55C95.4371 10.7367 95.5605 11.03 95.5605 11.43C95.5605 11.8833 95.3905 12.26 95.0505 12.56C94.7171 12.8533 94.1638 13 93.3905 13H91.0805V7.64H93.3805C93.7605 7.64 94.1005 7.68333 94.4005 7.77C94.7071 7.85 94.9471 7.99 95.1205 8.19C95.3005 8.38333 95.3905 8.65 95.3905 8.99ZM94.5005 9.1C94.5005 8.84667 94.4071 8.66333 94.2205 8.55C94.0405 8.43 93.7438 8.37 93.3305 8.37H91.9605V9.84H93.1705C94.0571 9.84 94.5005 9.59333 94.5005 9.1ZM94.6505 11.43C94.6505 11.1233 94.5338 10.9033 94.3005 10.77C94.0671 10.6367 93.7238 10.57 93.2705 10.57H91.9605V12.29H93.2905C93.7305 12.29 94.0671 12.2267 94.3005 12.1C94.5338 11.9667 94.6505 11.7433 94.6505 11.43Z" fill="white"/>
</svg>
