<svg width="135" height="38" viewBox="0 0 135 38" fill="none" xmlns="http://www.w3.org/2000/svg">
<rect width="135" height="38" rx="6" fill="black"/>
<path d="M68.1354 21.7519C67.2949 21.7551 66.4741 22.0073 65.7768 22.4766C65.0795 22.9458 64.5369 23.6112 64.2175 24.3887C63.898 25.1661 63.8161 26.0208 63.982 26.8448C64.148 27.6687 64.5543 28.4251 65.1498 29.0183C65.7452 29.6115 66.5031 30.0149 67.3277 30.1777C68.1523 30.3405 69.0066 30.2554 69.7829 29.933C70.5591 29.6106 71.2224 29.0654 71.689 28.3663C72.1557 27.6672 72.4047 26.8456 72.4047 26.0051C72.4129 25.4429 72.308 24.8848 72.0962 24.364C71.8844 23.8432 71.5699 23.3703 71.1716 22.9735C70.7733 22.5767 70.2992 22.264 69.7776 22.0542C69.256 21.8443 68.6975 21.7416 68.1354 21.7519ZM68.1354 28.5828C67.6178 28.6197 67.101 28.4999 66.6524 28.239C66.2038 27.9781 65.8442 27.5882 65.6203 27.12C65.3964 26.6519 65.3186 26.1272 65.3971 25.6142C65.4756 25.1012 65.7068 24.6238 66.0604 24.244C66.4141 23.8642 66.8739 23.5997 67.3799 23.4849C67.886 23.3701 68.4149 23.4104 68.8978 23.6004C69.3807 23.7904 69.7952 24.1214 70.0874 24.5503C70.3795 24.9792 70.5358 25.4861 70.5358 26.0051C70.5515 26.3329 70.5015 26.6606 70.3886 26.9688C70.2758 27.277 70.1024 27.5595 69.8787 27.7997C69.6551 28.0399 69.3856 28.2329 69.0862 28.3674C68.7868 28.5019 68.4635 28.5751 68.1354 28.5828ZM58.822 21.7519C57.9815 21.7551 57.1607 22.0073 56.4634 22.4765C55.7661 22.9458 55.2234 23.6112 54.904 24.3886C54.5845 25.166 54.5026 26.0207 54.6685 26.8447C54.8344 27.6687 55.2408 28.425 55.8362 29.0182C56.4317 29.6114 57.1896 30.0149 58.0142 30.1777C58.8388 30.3405 59.6931 30.2554 60.4694 29.933C61.2456 29.6106 61.9089 29.0654 62.3755 28.3663C62.8422 27.6672 63.0912 26.8456 63.0912 26.0051C63.0994 25.4429 62.9945 24.8848 62.7827 24.364C62.5709 23.8432 62.2565 23.3703 61.8582 22.9735C61.4598 22.5767 60.9858 22.2641 60.4642 22.0542C59.9426 21.8444 59.3841 21.7416 58.822 21.7519ZM58.822 28.5828C58.3044 28.6197 57.7876 28.4999 57.339 28.239C56.8904 27.9781 56.5308 27.5882 56.3069 27.12C56.083 26.6519 56.0052 26.1272 56.0837 25.6142C56.1622 25.1012 56.3934 24.6238 56.747 24.244C57.1007 23.8642 57.5605 23.5997 58.0665 23.4849C58.5726 23.3701 59.1015 23.4104 59.5844 23.6004C60.0673 23.7904 60.4818 24.1214 60.774 24.5503C61.0661 24.9792 61.2224 25.4861 61.2224 26.0051C61.2381 26.3329 61.1881 26.6606 61.0752 26.9688C60.9624 27.277 60.789 27.5595 60.5654 27.7997C60.3417 28.0399 60.0722 28.2329 59.7728 28.3674C59.4734 28.5019 59.1501 28.5751 58.822 28.5828ZM47.7432 23.0569V24.8612H52.0609C51.9986 25.7076 51.6523 26.508 51.0781 27.1329C50.6454 27.5739 50.1251 27.9193 49.5507 28.1468C48.9762 28.3744 48.3605 28.479 47.7432 28.4538C46.4812 28.4368 45.2766 27.9234 44.3902 27.025C43.5038 26.1265 43.0068 24.9151 43.0068 23.653C43.0068 22.3908 43.5038 21.1794 44.3902 20.2809C45.2766 19.3825 46.4812 18.8691 47.7432 18.8521C48.9554 18.8362 50.1249 19.2994 50.9976 20.1409L52.2703 18.8682C51.6748 18.2787 50.9677 17.814 50.1903 17.5014C49.4129 17.1888 48.581 17.0345 47.7432 17.0476C46.8677 17.0349 45.9984 17.1963 45.1858 17.5226C44.3732 17.8488 43.6336 18.3333 43.01 18.9479C42.3864 19.5625 41.8911 20.295 41.5531 21.1027C41.2151 21.9105 41.041 22.7773 41.041 23.653C41.041 24.5286 41.2151 25.3954 41.5531 26.2032C41.8911 27.0109 42.3864 27.7434 43.01 28.358C43.6336 28.9726 44.3732 29.4571 45.1858 29.7833C45.9984 30.1096 46.8677 30.271 47.7432 30.2582C48.5986 30.2937 49.4519 30.1469 50.2462 29.8275C51.0406 29.508 51.758 29.0234 52.3508 28.4056C53.4032 27.2568 53.9641 25.7418 53.9136 24.1847C53.9177 23.8065 53.8853 23.4289 53.8168 23.0569H47.7432ZM93.0515 24.4585C92.7959 23.6881 92.3093 23.0151 91.6579 22.5309C91.0065 22.0466 90.2218 21.7747 89.4105 21.7519C88.864 21.7553 88.3239 21.8695 87.8228 22.0875C87.3217 22.3056 86.8701 22.623 86.4951 23.0205C86.1201 23.4181 85.8297 23.8875 85.6413 24.4005C85.4529 24.9135 85.3705 25.4593 85.3991 26.0051C85.3868 26.5642 85.4873 27.1202 85.6946 27.6396C85.902 28.1591 86.2119 28.6314 86.6059 29.0284C86.9999 29.4254 87.4698 29.7389 87.9877 29.9502C88.5056 30.1615 89.0607 30.2663 89.62 30.2582C90.3206 30.2621 91.0113 30.0919 91.6299 29.7629C92.2485 29.4339 92.7757 28.9565 93.1642 28.3734L91.7143 27.4067C91.4971 27.7675 91.1898 28.0656 90.8227 28.2717C90.4555 28.4779 90.0411 28.5851 89.62 28.5828C89.1867 28.5993 88.7584 28.4853 88.3907 28.2555C88.023 28.0257 87.7328 27.6907 87.5578 27.2939L93.2449 24.9419L93.0515 24.4585ZM87.2518 25.8762C87.2317 25.5667 87.2737 25.2562 87.3751 24.9631C87.4765 24.6699 87.6353 24.3999 87.8423 24.1689C88.0493 23.9379 88.3003 23.7505 88.5807 23.6176C88.861 23.4848 89.165 23.4092 89.4749 23.3953C89.7976 23.374 90.1194 23.4483 90.4001 23.6087C90.6809 23.7691 90.9082 24.0087 91.0538 24.2974L87.2518 25.8762ZM82.628 30.0005H84.4968V17.4988H82.628V30.0005ZM79.567 22.7024H79.5026C79.2185 22.3938 78.8717 22.1493 78.4855 21.9854C78.0993 21.8215 77.6826 21.7419 77.2632 21.7519C76.1665 21.7986 75.1302 22.2671 74.3707 23.0596C73.6112 23.8521 73.1872 24.9074 73.1872 26.0051C73.1872 27.1028 73.6112 28.158 74.3707 28.9506C75.1302 29.7431 76.1665 30.2116 77.2632 30.2582C77.6843 30.2695 78.1027 30.1888 78.4895 30.0219C78.8762 29.8549 79.2219 29.6057 79.5026 29.2917H79.567V29.9039C79.567 31.5311 78.6971 32.4009 77.2954 32.4009C76.8282 32.3898 76.375 32.2398 75.9934 31.9701C75.6119 31.7004 75.3192 31.3232 75.1528 30.8865L73.5256 31.5632C73.8323 32.3099 74.3549 32.948 75.0265 33.3958C75.6982 33.8435 76.4882 34.0805 77.2954 34.0764C79.4865 34.0764 81.3392 32.7876 81.3392 29.646V22.0096H79.567V22.7024ZM77.4244 28.5828C76.7784 28.528 76.1766 28.2327 75.738 27.7553C75.2994 27.278 75.056 26.6534 75.056 26.0051C75.056 25.3568 75.2994 24.7322 75.738 24.2549C76.1766 23.7775 76.7784 23.4822 77.4244 23.4275C77.7457 23.4431 78.0606 23.5234 78.3503 23.6634C78.64 23.8034 78.8986 24.0002 79.1105 24.2423C79.3225 24.4843 79.4836 24.7666 79.5841 25.0722C79.6847 25.3778 79.7227 25.7005 79.6959 26.0212C79.721 26.3398 79.6816 26.6602 79.58 26.9633C79.4785 27.2663 79.3168 27.5458 79.1048 27.7849C78.8927 28.0241 78.6346 28.218 78.3459 28.3551C78.0571 28.4921 77.7437 28.5696 77.4244 28.5828ZM101.805 17.4991H97.3342V30.0005H99.1999V25.264H101.805C102.333 25.293 102.861 25.214 103.357 25.032C103.854 24.8499 104.308 24.5686 104.691 24.2053C105.075 23.8419 105.381 23.4041 105.59 22.9186C105.799 22.4331 105.907 21.9101 105.907 21.3815C105.907 20.853 105.799 20.33 105.59 19.8445C105.381 19.359 105.075 18.9212 104.691 18.5578C104.308 18.1945 103.854 17.9132 103.357 17.7311C102.861 17.5491 102.333 17.4701 101.805 17.4991ZM101.854 23.5243H99.1999V19.239H101.854C102.139 19.233 102.422 19.2841 102.687 19.3891C102.952 19.4941 103.194 19.651 103.398 19.8506C103.601 20.0501 103.763 20.2883 103.874 20.5512C103.984 20.8141 104.041 21.0964 104.041 21.3816C104.041 21.6668 103.984 21.9491 103.874 22.212C103.763 22.4749 103.601 22.7131 103.398 22.9126C103.194 23.1122 102.952 23.2691 102.687 23.3741C102.422 23.4791 102.139 23.5302 101.854 23.5243ZM113.385 21.729C112.704 21.6892 112.026 21.8491 111.435 22.1891C110.844 22.5291 110.364 23.0343 110.056 23.6428L111.713 24.3344C111.877 24.0324 112.126 23.7848 112.428 23.622C112.731 23.4592 113.075 23.3882 113.417 23.4177C113.891 23.3714 114.363 23.5148 114.731 23.8163C115.099 24.1177 115.332 24.5528 115.38 25.0259V25.1546C114.78 24.8363 114.112 24.6706 113.433 24.6721C111.648 24.6721 109.831 25.6532 109.831 27.4867C109.848 27.8732 109.943 28.2521 110.11 28.6012C110.276 28.9503 110.511 29.2623 110.801 29.5189C111.09 29.7754 111.428 29.9711 111.795 30.0945C112.162 30.2178 112.549 30.2663 112.935 30.2369C113.405 30.2646 113.873 30.1658 114.292 29.9508C114.711 29.7359 115.064 29.4126 115.315 29.0147H115.38V29.9797H117.181V25.1868C117.181 22.9673 115.524 21.729 113.385 21.729ZM113.16 28.5803C112.549 28.5803 111.696 28.2748 111.696 27.5189C111.696 26.554 112.758 26.184 113.675 26.184C114.27 26.1681 114.859 26.3125 115.38 26.6021C115.311 27.1444 115.049 27.6435 114.64 28.0071C114.232 28.3708 113.707 28.5744 113.16 28.5803ZM123.743 22.0023L121.604 27.4223H121.539L119.32 22.0023H117.31L120.639 29.5775L118.741 33.7913H120.687L125.818 22.0023H123.743ZM106.936 30.0005H108.801V17.4991H106.936V30.0005Z" fill="white"/>
<path d="M10.4353 9.53793C10.1074 9.93 9.94182 10.4326 9.97251 10.9428V33.0589C9.94173 33.5691 10.1073 34.0718 10.4353 34.4638L10.5093 34.5359L22.8983 22.147V21.8547L10.5093 9.46533L10.4353 9.53793Z" fill="url(#paint0_linear_1_2096)"/>
<path d="M27.0278 24.2787L22.8984 20.1473V19.855L27.0288 15.7246L27.1219 15.7777L32.0147 18.5578C33.4123 19.3518 33.4123 20.651 32.0147 21.4455L27.1219 24.2256L27.0278 24.2787Z" fill="url(#paint1_linear_1_2096)"/>
<path d="M27.122 24.2249L22.8985 20.001L10.4355 32.4639C10.7203 32.715 11.084 32.8587 11.4635 32.8699C11.843 32.8811 12.2145 32.7592 12.5136 32.5253L27.122 24.2249Z" fill="url(#paint2_linear_1_2096)"/>
<path d="M27.122 15.7766L12.5136 7.47617C12.2145 7.24226 11.843 7.12036 11.4635 7.13157C11.084 7.14278 10.7203 7.28641 10.4355 7.53757L22.8985 20.0006L27.122 15.7766Z" fill="url(#paint3_linear_1_2096)"/>
<path opacity="0.2" d="M27.0289 24.1318L12.5136 32.3791C12.2261 32.5981 11.8751 32.7175 11.5136 32.7194C11.1522 32.7214 10.8 32.6057 10.51 32.3898L10.4355 32.4643L10.5095 32.5364L10.51 32.5359C10.7999 32.7519 11.1522 32.8677 11.5136 32.8657C11.8751 32.8638 12.2261 32.7443 12.5136 32.5252L27.122 24.2248L27.0289 24.1318Z" fill="black"/>
<path opacity="0.12" d="M10.4353 34.3185C10.1074 33.9264 9.94183 33.4238 9.97248 32.9136V33.0597C9.94181 33.5699 10.1074 34.0725 10.4353 34.4646L10.5098 34.3901L10.4353 34.3185Z" fill="black"/>
<path opacity="0.12" d="M32.0152 21.2993L27.0293 24.1325L27.1224 24.2255L32.0152 21.4454C32.303 21.3204 32.5521 21.1207 32.7364 20.8668C32.9208 20.6129 33.0338 20.3143 33.0635 20.002C33.0016 20.2848 32.8747 20.5493 32.6927 20.7745C32.5107 20.9997 32.2788 21.1794 32.0152 21.2993Z" fill="black"/>
<path opacity="0.25" d="M12.5136 7.62334L32.0148 18.7033C32.2784 18.8232 32.5105 19.0029 32.6925 19.2282C32.8744 19.4535 33.0013 19.7182 33.0631 20.0011C33.0335 19.6887 32.9207 19.3899 32.7363 19.1359C32.5519 18.8819 32.3027 18.6821 32.0148 18.5572L12.5136 7.47724C11.116 6.68314 9.97266 7.34274 9.97266 8.94354V9.08964C9.97266 7.48894 11.116 6.82934 12.5136 7.62334Z" fill="white"/>
<path d="M47.5455 8.53C47.5455 9.01667 47.3921 9.40333 47.0855 9.69C46.7788 9.97 46.3688 10.15 45.8555 10.23V10.27C46.4555 10.35 46.9121 10.5367 47.2255 10.83C47.5388 11.1233 47.6955 11.5067 47.6955 11.98C47.6955 12.6067 47.4555 13.1167 46.9755 13.51C46.4955 13.9033 45.7755 14.1 44.8155 14.1C44.4288 14.1 44.0588 14.07 43.7055 14.01C43.3588 13.9567 43.0355 13.8567 42.7355 13.71V12.89C43.0488 13.0367 43.3888 13.1533 43.7555 13.24C44.1288 13.32 44.4788 13.36 44.8055 13.36C45.4455 13.36 45.9288 13.24 46.2555 13C46.5888 12.76 46.7555 12.42 46.7555 11.98C46.7555 11.5267 46.5621 11.1967 46.1755 10.99C45.7888 10.7833 45.2488 10.68 44.5555 10.68H43.5355V9.93H44.5055C45.2121 9.93 45.7388 9.81333 46.0855 9.58C46.4388 9.34 46.6155 9.02 46.6155 8.62C46.6155 8.26 46.4821 7.98333 46.2155 7.79C45.9488 7.59667 45.6021 7.5 45.1755 7.5C44.7288 7.5 44.3555 7.55667 44.0555 7.67C43.7621 7.78333 43.4755 7.93 43.1955 8.11L42.7655 7.5C43.0455 7.29333 43.3888 7.12 43.7955 6.98C44.2088 6.83333 44.6721 6.76 45.1855 6.76C45.9588 6.76 46.5455 6.92667 46.9455 7.26C47.3455 7.59333 47.5455 8.01667 47.5455 8.53ZM51.1144 8.55C51.7677 8.55 52.251 8.69333 52.5644 8.98C52.8777 9.26667 53.0344 9.72333 53.0344 10.35V14H52.3944L52.2244 13.24H52.1844C51.951 13.5333 51.7044 13.75 51.4444 13.89C51.191 14.03 50.8377 14.1 50.3844 14.1C49.8977 14.1 49.4944 13.9733 49.1744 13.72C48.8544 13.46 48.6944 13.0567 48.6944 12.51C48.6944 11.9767 48.9044 11.5667 49.3244 11.28C49.7444 10.9867 50.391 10.8267 51.2644 10.8L52.1744 10.77V10.45C52.1744 10.0033 52.0777 9.69333 51.8844 9.52C51.691 9.34667 51.4177 9.26 51.0644 9.26C50.7844 9.26 50.5177 9.30333 50.2644 9.39C50.011 9.47 49.7744 9.56333 49.5544 9.67L49.2844 9.01C49.5177 8.88333 49.7944 8.77667 50.1144 8.69C50.4344 8.59667 50.7677 8.55 51.1144 8.55ZM51.3744 11.41C50.7077 11.4367 50.2444 11.5433 49.9844 11.73C49.731 11.9167 49.6044 12.18 49.6044 12.52C49.6044 12.82 49.6944 13.04 49.8744 13.18C50.061 13.32 50.2977 13.39 50.5844 13.39C51.0377 13.39 51.4144 13.2667 51.7144 13.02C52.0144 12.7667 52.1644 12.38 52.1644 11.86V11.38L51.3744 11.41ZM57.9598 8.64V9.38H55.5698V14H54.6898V8.64H57.9598ZM61.566 8.54C62.226 8.54 62.756 8.77 63.156 9.23C63.5627 9.69 63.766 10.3833 63.766 11.31C63.766 12.2233 63.5627 12.9167 63.156 13.39C62.756 13.8633 62.2227 14.1 61.556 14.1C61.1427 14.1 60.7993 14.0233 60.526 13.87C60.2593 13.71 60.0493 13.5267 59.896 13.32H59.836C59.8493 13.4333 59.8627 13.5767 59.876 13.75C59.8893 13.9233 59.896 14.0733 59.896 14.2V16.4H59.016V8.64H59.736L59.856 9.37H59.896C60.056 9.13667 60.266 8.94 60.526 8.78C60.786 8.62 61.1327 8.54 61.566 8.54ZM61.406 9.28C60.8593 9.28 60.4727 9.43333 60.246 9.74C60.026 10.0467 59.9093 10.5133 59.896 11.14V11.31C59.896 11.97 60.0027 12.48 60.216 12.84C60.436 13.1933 60.8393 13.37 61.426 13.37C61.7527 13.37 62.0193 13.28 62.226 13.1C62.4393 12.92 62.596 12.6767 62.696 12.37C62.8027 12.0567 62.856 11.7 62.856 11.3C62.856 10.6867 62.736 10.1967 62.496 9.83C62.2627 9.46333 61.8993 9.28 61.406 9.28ZM64.2307 8.64H65.1707L66.3307 11.69C66.4307 11.9567 66.5207 12.2133 66.6007 12.46C66.6807 12.7 66.7407 12.93 66.7807 13.15H66.8207C66.8607 12.9833 66.924 12.7667 67.0107 12.5C67.0974 12.2267 67.1874 11.9533 67.2807 11.68L68.3707 8.64H69.3207L67.0107 14.74C66.824 15.2467 66.5807 15.65 66.2807 15.95C65.9874 16.25 65.5807 16.4 65.0607 16.4C64.9007 16.4 64.7607 16.39 64.6407 16.37C64.5207 16.3567 64.4174 16.34 64.3307 16.32V15.62C64.404 15.6333 64.4907 15.6467 64.5907 15.66C64.6974 15.6733 64.8074 15.68 64.9207 15.68C65.2274 15.68 65.474 15.5933 65.6607 15.42C65.854 15.2467 66.004 15.0167 66.1107 14.73L66.3907 14.02L64.2307 8.64ZM71.5784 8.54C72.1917 8.54 72.6784 8.66333 73.0384 8.91C73.405 9.15 73.5884 9.49667 73.5884 9.95C73.5884 10.2767 73.4984 10.5367 73.3184 10.73C73.1384 10.9167 72.8917 11.0533 72.5784 11.14V11.18C72.7917 11.24 72.9884 11.3233 73.1684 11.43C73.3484 11.5367 73.4917 11.6767 73.5984 11.85C73.7117 12.0233 73.7684 12.2467 73.7684 12.52C73.7684 12.9667 73.5817 13.3433 73.2084 13.65C72.8417 13.95 72.265 14.1 71.4784 14.1C71.0917 14.1 70.7417 14.0667 70.4284 14C70.115 13.94 69.855 13.8567 69.6484 13.75V12.96C69.875 13.0667 70.1417 13.1633 70.4484 13.25C70.7617 13.3367 71.1017 13.38 71.4684 13.38C71.8684 13.38 72.205 13.3133 72.4784 13.18C72.7584 13.04 72.8984 12.8033 72.8984 12.47C72.8984 11.87 72.3884 11.57 71.3684 11.57H70.6484V10.85H71.2284C71.6884 10.85 72.055 10.79 72.3284 10.67C72.6084 10.5433 72.7484 10.33 72.7484 10.03C72.7484 9.77667 72.6417 9.58667 72.4284 9.46C72.2217 9.33333 71.9217 9.27 71.5284 9.27C71.235 9.27 70.975 9.3 70.7484 9.36C70.5284 9.41333 70.285 9.49667 70.0184 9.61L69.7084 8.91C70.2684 8.66333 70.8917 8.54 71.5784 8.54ZM75.9007 11.91C75.9007 11.99 75.8974 12.11 75.8907 12.27C75.884 12.43 75.874 12.59 75.8607 12.75C75.854 12.91 75.8474 13.0367 75.8407 13.13L78.7107 8.64H79.7907V14H78.9707V10.84C78.9707 10.7333 78.9707 10.5933 78.9707 10.42C78.9774 10.2467 78.984 10.0767 78.9907 9.91C78.9974 9.73667 79.004 9.60667 79.0107 9.52L76.1607 14H75.0707V8.64H75.9007V11.91ZM85.1965 9.38H83.4465V14H82.5765V9.38H80.8465V8.64H85.1965V9.38ZM88.2247 8.54C88.6847 8.54 89.078 8.64 89.4047 8.84C89.738 9.04 89.9914 9.32333 90.1647 9.69C90.3447 10.05 90.4347 10.4733 90.4347 10.96V11.49H86.7647C86.778 12.0967 86.9314 12.56 87.2247 12.88C87.5247 13.1933 87.9414 13.35 88.4747 13.35C88.8147 13.35 89.1147 13.32 89.3747 13.26C89.6414 13.1933 89.9147 13.1 90.1947 12.98V13.75C89.9214 13.87 89.6514 13.9567 89.3847 14.01C89.118 14.07 88.8014 14.1 88.4347 14.1C87.928 14.1 87.478 13.9967 87.0847 13.79C86.698 13.5833 86.3947 13.2767 86.1747 12.87C85.9614 12.4567 85.8547 11.9533 85.8547 11.36C85.8547 10.7733 85.9514 10.27 86.1447 9.85C86.3447 9.43 86.6214 9.10667 86.9747 8.88C87.3347 8.65333 87.7514 8.54 88.2247 8.54ZM88.2147 9.26C87.7947 9.26 87.4614 9.39667 87.2147 9.67C86.9747 9.93667 86.8314 10.31 86.7847 10.79H89.5147C89.508 10.3367 89.4014 9.97 89.1947 9.69C88.988 9.40333 88.6614 9.26 88.2147 9.26ZM98.0428 9.99C98.0428 10.3233 97.9428 10.5833 97.7428 10.77C97.5428 10.9567 97.2861 11.0833 96.9728 11.15V11.19C97.3061 11.2367 97.5961 11.3567 97.8428 11.55C98.0895 11.7367 98.2128 12.03 98.2128 12.43C98.2128 12.8833 98.0428 13.26 97.7028 13.56C97.3695 13.8533 96.8161 14 96.0428 14H93.7328V8.64H96.0328C96.4128 8.64 96.7528 8.68333 97.0528 8.77C97.3595 8.85 97.5995 8.99 97.7728 9.19C97.9528 9.38333 98.0428 9.65 98.0428 9.99ZM97.1528 10.1C97.1528 9.84667 97.0595 9.66333 96.8728 9.55C96.6928 9.43 96.3961 9.37 95.9828 9.37H94.6128V10.84H95.8228C96.7095 10.84 97.1528 10.5933 97.1528 10.1ZM97.3028 12.43C97.3028 12.1233 97.1861 11.9033 96.9528 11.77C96.7195 11.6367 96.3761 11.57 95.9228 11.57H94.6128V13.29H95.9428C96.3828 13.29 96.7195 13.2267 96.9528 13.1C97.1861 12.9667 97.3028 12.7433 97.3028 12.43Z" fill="white"/>
<defs>
<linearGradient id="paint0_linear_1_2096" x1="21.7996" y1="10.7096" x2="5.01724" y2="27.4921" gradientUnits="userSpaceOnUse">
<stop stop-color="#00A0FF"/>
<stop offset="0.00657" stop-color="#00A1FF"/>
<stop offset="0.2601" stop-color="#00BEFF"/>
<stop offset="0.5122" stop-color="#00D2FF"/>
<stop offset="0.7604" stop-color="#00DFFF"/>
<stop offset="1" stop-color="#00E3FF"/>
</linearGradient>
<linearGradient id="paint1_linear_1_2096" x1="33.8344" y1="20.0017" x2="9.63752" y2="20.0017" gradientUnits="userSpaceOnUse">
<stop stop-color="#FFE000"/>
<stop offset="0.4087" stop-color="#FFBD00"/>
<stop offset="0.7754" stop-color="#FFA500"/>
<stop offset="1" stop-color="#FF9C00"/>
</linearGradient>
<linearGradient id="paint2_linear_1_2096" x1="24.8271" y1="22.2961" x2="2.06882" y2="45.0544" gradientUnits="userSpaceOnUse">
<stop stop-color="#FF3A44"/>
<stop offset="1" stop-color="#C31162"/>
</linearGradient>
<linearGradient id="paint3_linear_1_2096" x1="7.29748" y1="0.175749" x2="17.46" y2="10.3383" gradientUnits="userSpaceOnUse">
<stop stop-color="#32A071"/>
<stop offset="0.0685" stop-color="#2DA771"/>
<stop offset="0.4762" stop-color="#15CF74"/>
<stop offset="0.8009" stop-color="#06E775"/>
<stop offset="1" stop-color="#00F076"/>
</linearGradient>
</defs>
</svg>
