<svg width="124" height="75" viewBox="0 0 124 75" fill="none" xmlns="http://www.w3.org/2000/svg">
<path d="M51.5869 5.93909L53.0088 5.1178L61.8588 0L70.7088 5.1178L79.5588 10.2424V20.2676L73.7356 16.8874V13.609L67.7972 10.1745L61.8588 6.73323L55.9204 10.1745L51.5869 12.6791V5.93909Z" fill="#DC0000"/>
<path d="M63.4608 33.2967L67.7876 30.7921L73.726 27.3577V23.6245L79.5493 27.0047V30.7243L70.6993 35.8489L69.2841 36.6701L63.4608 33.2967Z" fill="#DC0000"/>
<path d="M61.8538 40.9677L53.0038 35.8499L44.1538 30.7253V20.4829V10.2405L49.9771 6.86713V13.6072V20.4829V23.2862V27.3587L55.9155 30.7932L55.9764 30.8271L61.8538 34.2345L67.6771 37.6011L61.8538 40.9677Z" fill="black"/>
<path d="M57.4101 7.75024H51.5869V26.2463H57.4101V7.75024Z" fill="#DC0000"/>
<path d="M72.2053 31.611L69.2937 36.6677L51.5869 26.2488L54.4985 21.1989L72.2053 31.611Z" fill="#DC0000"/>
<path d="M79.5544 29.8108L62.6128 19.9689V13.2289L79.5544 23.0708V29.8108Z" fill="#DC0000"/>
<path d="M14.7668 75H0V57.7304H3.93694V71.053H14.7603L14.7668 75Z" fill="black"/>
<path d="M34.197 74.9956H24.1094L22.3862 71.0487H28.0399L24.9678 64.0994L20.1596 74.9956H15.745V71.0487H17.4941L23.3737 57.726H26.5749L34.197 74.9956Z" fill="black"/>
<path d="M51.1706 74.9956H47.2337L39.1146 65.1994V74.9956H35.1776V57.726H39.121L47.2337 67.5093V57.726H51.1706V74.9956Z" fill="black"/>
<path d="M69.3673 74.9944H60.7576C58.3761 74.9944 56.3495 74.1532 54.6651 72.4644C52.9806 70.7821 52.1415 68.7439 52.1415 66.3563C52.1415 63.9752 52.9806 61.937 54.6651 60.2482C56.3431 58.5659 58.3761 57.7183 60.7576 57.7183H69.3673V61.6652H60.7576C59.4604 61.6652 58.3567 62.1246 57.4467 63.037C56.5367 63.9493 56.0785 65.0558 56.0785 66.3563C56.0785 67.6569 56.5367 68.7633 57.4467 69.6757C58.3567 70.588 59.4604 71.0474 60.7576 71.0474H65.4303V68.3363H62.9714L61.2481 64.3893H69.3673V74.9944Z" fill="#DC0000"/>
<path d="M88.8188 74.9956H78.7312L77.008 71.0487H82.6617L79.5896 64.0994L74.7813 74.9956H70.3668V71.0487H72.1158L77.9954 57.726H81.1966L88.8188 74.9956Z" fill="#DC0000"/>
<path d="M108.253 74.9956H104.316V67.1729L100.257 74.9892H97.7979L93.7383 67.1729V74.9892H89.8014V57.726H93.7448L99.0306 68.3311L104.316 57.726H108.26V74.9956H108.253Z" fill="#DC0000"/>
<path d="M124 74.9956H109.24V57.726H124V61.673H113.177V64.3841H121.541V68.3311H113.177V71.0422H124V74.9956Z" fill="#DC0000"/>
</svg>
