<svg width="24" height="24" viewBox="0 0 24 24" fill="none" xmlns="http://www.w3.org/2000/svg">
<path fill-rule="evenodd" clip-rule="evenodd" d="M3 4C2.44772 4 2 4.44772 2 5C2 5.55228 2.44771 6 3 6H5.00586V4H3ZM8.00586 4V6H20C20.5523 6 21 5.55228 21 5C21 4.44772 20.5523 4 20 4H8.00586Z" fill="#B3B3B3"/>
<rect x="5" y="1" width="2" height="8" rx="1" fill="#B3B3B3"/>
<rect x="10" y="8" width="2" height="8" rx="1" fill="#B3B3B3"/>
<rect x="16" y="16" width="2" height="8" rx="1" fill="#B3B3B3"/>
<path fill-rule="evenodd" clip-rule="evenodd" d="M3 11C2.44772 11 2 11.4477 2 12C2 12.5523 2.44771 13 3 13H10.0053V11H3ZM13.0053 11V13H20C20.5523 13 21 12.5523 21 12C21 11.4477 20.5523 11 20 11H13.0053Z" fill="#B3B3B3"/>
<path fill-rule="evenodd" clip-rule="evenodd" d="M3 19C2.44772 19 2 19.4477 2 20C2 20.5523 2.44771 21 3 21H15.9985V19H3ZM18.9985 19V21H20C20.5523 21 21 20.5523 21 20C21 19.4477 20.5523 19 20 19H18.9985Z" fill="#B3B3B3"/>
</svg>
