<svg width="24" height="24" viewBox="0 0 24 24" fill="none" xmlns="http://www.w3.org/2000/svg">
<g opacity="0.3">
<mask id="path-1-inside-1_1_2151" fill="white">
<path fill-rule="evenodd" clip-rule="evenodd" d="M6 0C3.23858 0 1 2.23857 1 5V14.9565C1 17.7179 3.23858 19.9565 6 19.9565H7.68564L11.3964 23.7043C11.7971 24.1089 12.4544 24.0978 12.8411 23.6797L16.2854 19.9565H17C19.7614 19.9565 22 17.7179 22 14.9565V5C22 2.23858 19.7614 0 17 0H6Z"/>
</mask>
<path d="M7.68564 19.9565L9.10684 18.5493C8.73121 18.17 8.2195 17.9565 7.68564 17.9565V19.9565ZM11.3964 23.7043L12.8177 22.2971L12.8176 22.2971L11.3964 23.7043ZM12.8411 23.6797L14.3093 25.0379L12.8411 23.6797ZM16.2854 19.9565V17.9565C15.728 17.9565 15.1958 18.1892 14.8173 18.5984L16.2854 19.9565ZM3 5C3 3.34314 4.34314 2 6 2V-2C2.13401 -2 -1 1.134 -1 5H3ZM3 14.9565V5H-1V14.9565H3ZM6 17.9565C4.34315 17.9565 3 16.6134 3 14.9565H-1C-1 18.8225 2.13401 21.9565 6 21.9565V17.9565ZM7.68564 17.9565H6V21.9565H7.68564V17.9565ZM6.26444 21.3637L9.97525 25.1115L12.8176 22.2971L9.10684 18.5493L6.26444 21.3637ZM9.97525 25.1115C11.1773 26.3255 13.1491 26.292 14.3093 25.0379L11.373 22.3216C11.7597 21.9036 12.417 21.8924 12.8177 22.2971L9.97525 25.1115ZM14.3093 25.0379L17.7536 21.3147L14.8173 18.5984L11.373 22.3216L14.3093 25.0379ZM17 17.9565H16.2854V21.9565H17V17.9565ZM20 14.9565C20 16.6134 18.6569 17.9565 17 17.9565V21.9565C20.866 21.9565 24 18.8225 24 14.9565H20ZM20 5V14.9565H24V5H20ZM17 2C18.6569 2 20 3.34315 20 5H24C24 1.13401 20.866 -2 17 -2V2ZM6 2H17V-2H6V2Z" fill="black" mask="url(#path-1-inside-1_1_2151)"/>
<path d="M7 8C7 7.44772 7.44772 7 8 7H15C15.5523 7 16 7.44772 16 8C16 8.55228 15.5523 9 15 9H8C7.44772 9 7 8.55228 7 8Z" fill="black"/>
<path d="M7 8C7 7.44772 7.44772 7 8 7H15C15.5523 7 16 7.44772 16 8C16 8.55228 15.5523 9 15 9H8C7.44772 9 7 8.55228 7 8Z" fill="black"/>
<path d="M7 12C7 11.4477 7.44772 11 8 11H15C15.5523 11 16 11.4477 16 12C16 12.5523 15.5523 13 15 13H8C7.44772 13 7 12.5523 7 12Z" fill="black"/>
<path d="M7 12C7 11.4477 7.44772 11 8 11H15C15.5523 11 16 11.4477 16 12C16 12.5523 15.5523 13 15 13H8C7.44772 13 7 12.5523 7 12Z" fill="black"/>
</g>
</svg>
