<svg width="256" height="24" viewBox="0 0 256 24" fill="none" xmlns="http://www.w3.org/2000/svg">
<path d="M2.9025 13.98V18H1.455V7.2525H4.6275C5.3075 7.2525 5.8975 7.3325 6.3975 7.4925C6.9025 7.6475 7.32 7.87 7.65 8.16C7.98 8.45 8.225 8.8 8.385 9.21C8.55 9.62 8.6325 10.0775 8.6325 10.5825C8.6325 11.0825 8.545 11.54 8.37 11.955C8.195 12.37 7.9375 12.7275 7.5975 13.0275C7.2625 13.3275 6.845 13.5625 6.345 13.7325C5.845 13.8975 5.2725 13.98 4.6275 13.98H2.9025ZM2.9025 12.825H4.6275C5.0425 12.825 5.4075 12.77 5.7225 12.66C6.0425 12.55 6.31 12.3975 6.525 12.2025C6.74 12.0025 6.9025 11.765 7.0125 11.49C7.1225 11.215 7.1775 10.9125 7.1775 10.5825C7.1775 9.8975 6.965 9.3625 6.54 8.9775C6.12 8.5925 5.4825 8.4 4.6275 8.4H2.9025V12.825ZM13.1202 10.2825C13.6752 10.2825 14.1752 10.375 14.6202 10.56C15.0702 10.745 15.4502 11.0075 15.7602 11.3475C16.0752 11.6875 16.3152 12.1 16.4802 12.585C16.6502 13.065 16.7352 13.6025 16.7352 14.1975C16.7352 14.7975 16.6502 15.3375 16.4802 15.8175C16.3152 16.2975 16.0752 16.7075 15.7602 17.0475C15.4502 17.3875 15.0702 17.65 14.6202 17.835C14.1752 18.015 13.6752 18.105 13.1202 18.105C12.5652 18.105 12.0627 18.015 11.6127 17.835C11.1677 17.65 10.7877 17.3875 10.4727 17.0475C10.1577 16.7075 9.9152 16.2975 9.7452 15.8175C9.5752 15.3375 9.4902 14.7975 9.4902 14.1975C9.4902 13.6025 9.5752 13.065 9.7452 12.585C9.9152 12.1 10.1577 11.6875 10.4727 11.3475C10.7877 11.0075 11.1677 10.745 11.6127 10.56C12.0627 10.375 12.5652 10.2825 13.1202 10.2825ZM13.1202 17.0625C13.8702 17.0625 14.4302 16.8125 14.8002 16.3125C15.1702 15.8075 15.3552 15.105 15.3552 14.205C15.3552 13.3 15.1702 12.595 14.8002 12.09C14.4302 11.585 13.8702 11.3325 13.1202 11.3325C12.7402 11.3325 12.4102 11.3975 12.1302 11.5275C11.8502 11.6575 11.6152 11.845 11.4252 12.09C11.2402 12.335 11.1002 12.6375 11.0052 12.9975C10.9152 13.3525 10.8702 13.755 10.8702 14.205C10.8702 14.655 10.9152 15.0575 11.0052 15.4125C11.1002 15.7675 11.2402 16.0675 11.4252 16.3125C11.6152 16.5525 11.8502 16.7375 12.1302 16.8675C12.4102 16.9975 12.7402 17.0625 13.1202 17.0625ZM17.3902 10.4025H18.4402C18.5502 10.4025 18.6402 10.43 18.7102 10.485C18.7802 10.54 18.8277 10.605 18.8527 10.68L20.3077 15.57C20.3477 15.75 20.3852 15.925 20.4202 16.095C20.4552 16.26 20.4852 16.4275 20.5102 16.5975C20.5502 16.4275 20.5952 16.26 20.6452 16.095C20.6952 15.925 20.7477 15.75 20.8027 15.57L22.4077 10.65C22.4327 10.575 22.4752 10.5125 22.5352 10.4625C22.6002 10.4125 22.6802 10.3875 22.7752 10.3875H23.3527C23.4527 10.3875 23.5352 10.4125 23.6002 10.4625C23.6652 10.5125 23.7102 10.575 23.7352 10.65L25.3027 15.57C25.3577 15.745 25.4052 15.9175 25.4452 16.0875C25.4902 16.2575 25.5327 16.425 25.5727 16.59C25.5977 16.425 25.6302 16.2525 25.6702 16.0725C25.7102 15.8925 25.7527 15.725 25.7977 15.57L27.2827 10.68C27.3077 10.6 27.3552 10.535 27.4252 10.485C27.4952 10.43 27.5777 10.4025 27.6727 10.4025H28.6777L26.2177 18H25.1602C25.0302 18 24.9402 17.915 24.8902 17.745L23.2102 12.5925C23.1702 12.4775 23.1377 12.3625 23.1127 12.2475C23.0877 12.1275 23.0627 12.01 23.0377 11.895C23.0127 12.01 22.9877 12.1275 22.9627 12.2475C22.9377 12.3675 22.9052 12.485 22.8652 12.6L21.1627 17.745C21.1077 17.915 21.0052 18 20.8552 18H19.8502L17.3902 10.4025ZM32.872 10.2825C33.327 10.2825 33.747 10.36 34.132 10.515C34.517 10.665 34.8495 10.885 35.1295 11.175C35.4095 11.46 35.627 11.815 35.782 12.24C35.942 12.66 36.022 13.14 36.022 13.68C36.022 13.89 35.9995 14.03 35.9545 14.1C35.9095 14.17 35.8245 14.205 35.6995 14.205H30.6445C30.6545 14.685 30.7195 15.1025 30.8395 15.4575C30.9595 15.8125 31.1245 16.11 31.3345 16.35C31.5445 16.585 31.7945 16.7625 32.0845 16.8825C32.3745 16.9975 32.6995 17.055 33.0595 17.055C33.3945 17.055 33.682 17.0175 33.922 16.9425C34.167 16.8625 34.377 16.7775 34.552 16.6875C34.727 16.5975 34.872 16.515 34.987 16.44C35.107 16.36 35.2095 16.32 35.2945 16.32C35.4045 16.32 35.4895 16.3625 35.5495 16.4475L35.9245 16.935C35.7595 17.135 35.562 17.31 35.332 17.46C35.102 17.605 34.8545 17.725 34.5895 17.82C34.3295 17.915 34.0595 17.985 33.7795 18.03C33.4995 18.08 33.222 18.105 32.947 18.105C32.422 18.105 31.937 18.0175 31.492 17.8425C31.052 17.6625 30.6695 17.4025 30.3445 17.0625C30.0245 16.7175 29.7745 16.2925 29.5945 15.7875C29.4145 15.2825 29.3245 14.7025 29.3245 14.0475C29.3245 13.5175 29.4045 13.0225 29.5645 12.5625C29.7295 12.1025 29.9645 11.705 30.2695 11.37C30.5745 11.03 30.947 10.765 31.387 10.575C31.827 10.38 32.322 10.2825 32.872 10.2825ZM32.902 11.265C32.257 11.265 31.7495 11.4525 31.3795 11.8275C31.0095 12.1975 30.7795 12.7125 30.6895 13.3725H34.822C34.822 13.0625 34.7795 12.78 34.6945 12.525C34.6095 12.265 34.4845 12.0425 34.3195 11.8575C34.1545 11.6675 33.952 11.5225 33.712 11.4225C33.477 11.3175 33.207 11.265 32.902 11.265ZM37.7307 18V10.4025H38.4957C38.6407 10.4025 38.7407 10.43 38.7957 10.485C38.8507 10.54 38.8882 10.635 38.9082 10.77L38.9982 11.955C39.2582 11.425 39.5782 11.0125 39.9582 10.7175C40.3432 10.4175 40.7932 10.2675 41.3082 10.2675C41.5182 10.2675 41.7082 10.2925 41.8782 10.3425C42.0482 10.3875 42.2057 10.4525 42.3507 10.5375L42.1782 11.535C42.1432 11.66 42.0657 11.7225 41.9457 11.7225C41.8757 11.7225 41.7682 11.7 41.6232 11.655C41.4782 11.605 41.2757 11.58 41.0157 11.58C40.5507 11.58 40.1607 11.715 39.8457 11.985C39.5357 12.255 39.2757 12.6475 39.0657 13.1625V18H37.7307ZM46.788 10.2825C47.243 10.2825 47.663 10.36 48.048 10.515C48.433 10.665 48.7655 10.885 49.0455 11.175C49.3255 11.46 49.543 11.815 49.698 12.24C49.858 12.66 49.938 13.14 49.938 13.68C49.938 13.89 49.9155 14.03 49.8705 14.1C49.8255 14.17 49.7405 14.205 49.6155 14.205H44.5605C44.5705 14.685 44.6355 15.1025 44.7555 15.4575C44.8755 15.8125 45.0405 16.11 45.2505 16.35C45.4605 16.585 45.7105 16.7625 46.0005 16.8825C46.2905 16.9975 46.6155 17.055 46.9755 17.055C47.3105 17.055 47.598 17.0175 47.838 16.9425C48.083 16.8625 48.293 16.7775 48.468 16.6875C48.643 16.5975 48.788 16.515 48.903 16.44C49.023 16.36 49.1255 16.32 49.2105 16.32C49.3205 16.32 49.4055 16.3625 49.4655 16.4475L49.8405 16.935C49.6755 17.135 49.478 17.31 49.248 17.46C49.018 17.605 48.7705 17.725 48.5055 17.82C48.2455 17.915 47.9755 17.985 47.6955 18.03C47.4155 18.08 47.138 18.105 46.863 18.105C46.338 18.105 45.853 18.0175 45.408 17.8425C44.968 17.6625 44.5855 17.4025 44.2605 17.0625C43.9405 16.7175 43.6905 16.2925 43.5105 15.7875C43.3305 15.2825 43.2405 14.7025 43.2405 14.0475C43.2405 13.5175 43.3205 13.0225 43.4805 12.5625C43.6455 12.1025 43.8805 11.705 44.1855 11.37C44.4905 11.03 44.863 10.765 45.303 10.575C45.743 10.38 46.238 10.2825 46.788 10.2825ZM46.818 11.265C46.173 11.265 45.6655 11.4525 45.2955 11.8275C44.9255 12.1975 44.6955 12.7125 44.6055 13.3725H48.738C48.738 13.0625 48.6955 12.78 48.6105 12.525C48.5255 12.265 48.4005 12.0425 48.2355 11.8575C48.0705 11.6675 47.868 11.5225 47.628 11.4225C47.393 11.3175 47.123 11.265 46.818 11.265ZM56.9943 18C56.8043 18 56.6843 17.9075 56.6343 17.7225L56.5143 16.8C56.1893 17.195 55.8168 17.5125 55.3968 17.7525C54.9818 17.9875 54.5043 18.105 53.9643 18.105C53.5293 18.105 53.1343 18.0225 52.7793 17.8575C52.4243 17.6875 52.1218 17.44 51.8718 17.115C51.6218 16.79 51.4293 16.385 51.2943 15.9C51.1593 15.415 51.0918 14.8575 51.0918 14.2275C51.0918 13.6675 51.1668 13.1475 51.3168 12.6675C51.4668 12.1825 51.6818 11.7625 51.9618 11.4075C52.2468 11.0525 52.5918 10.775 52.9968 10.575C53.4018 10.37 53.8618 10.2675 54.3768 10.2675C54.8418 10.2675 55.2393 10.3475 55.5693 10.5075C55.8993 10.6625 56.1943 10.8825 56.4543 11.1675V6.9525H57.7893V18H56.9943ZM54.4068 17.025C54.8418 17.025 55.2218 16.925 55.5468 16.725C55.8768 16.525 56.1793 16.2425 56.4543 15.8775V12.2025C56.2093 11.8725 55.9393 11.6425 55.6443 11.5125C55.3543 11.3775 55.0318 11.31 54.6768 11.31C53.9668 11.31 53.4218 11.5625 53.0418 12.0675C52.6618 12.5725 52.4718 13.2925 52.4718 14.2275C52.4718 14.7225 52.5143 15.1475 52.5993 15.5025C52.6843 15.8525 52.8093 16.1425 52.9743 16.3725C53.1393 16.5975 53.3418 16.7625 53.5818 16.8675C53.8218 16.9725 54.0968 17.025 54.4068 17.025ZM62.9711 18V6.9525H64.3136V11.4975C64.6286 11.1325 64.9886 10.84 65.3936 10.62C65.8036 10.395 66.2711 10.2825 66.7961 10.2825C67.2361 10.2825 67.6336 10.365 67.9886 10.53C68.3436 10.695 68.6461 10.9425 68.8961 11.2725C69.1461 11.5975 69.3386 12.0025 69.4736 12.4875C69.6086 12.9675 69.6761 13.5225 69.6761 14.1525C69.6761 14.7125 69.6011 15.235 69.4511 15.72C69.3011 16.2 69.0836 16.6175 68.7986 16.9725C68.5186 17.3225 68.1736 17.6 67.7636 17.805C67.3586 18.005 66.9011 18.105 66.3911 18.105C65.9011 18.105 65.4836 18.01 65.1386 17.82C64.7986 17.63 64.5011 17.365 64.2461 17.025L64.1786 17.715C64.1386 17.905 64.0236 18 63.8336 18H62.9711ZM66.3611 11.3475C65.9261 11.3475 65.5436 11.4475 65.2136 11.6475C64.8886 11.8475 64.5886 12.13 64.3136 12.495V16.17C64.5536 16.5 64.8186 16.7325 65.1086 16.8675C65.4036 17.0025 65.7311 17.07 66.0911 17.07C66.8011 17.07 67.3461 16.8175 67.7261 16.3125C68.1061 15.8075 68.2961 15.0875 68.2961 14.1525C68.2961 13.6575 68.2511 13.2325 68.1611 12.8775C68.0761 12.5225 67.9511 12.2325 67.7861 12.0075C67.6211 11.7775 67.4186 11.61 67.1786 11.505C66.9386 11.4 66.6661 11.3475 66.3611 11.3475ZM73.342 20.2425C73.297 20.3425 73.2395 20.4225 73.1695 20.4825C73.1045 20.5425 73.002 20.5725 72.862 20.5725H71.872L73.2595 17.5575L70.1245 10.4025H71.2795C71.3945 10.4025 71.4845 10.4325 71.5495 10.4925C71.6145 10.5475 71.662 10.61 71.692 10.68L73.7245 15.465C73.7695 15.575 73.807 15.685 73.837 15.795C73.872 15.905 73.902 16.0175 73.927 16.1325C73.962 16.0175 73.997 15.905 74.032 15.795C74.067 15.685 74.107 15.5725 74.152 15.4575L76.1245 10.68C76.1545 10.6 76.2045 10.535 76.2745 10.485C76.3495 10.43 76.4295 10.4025 76.5145 10.4025H77.5795L73.342 20.2425Z" fill="black"/>
<path d="M180.99 9.2925C180.915 9.4125 180.835 9.5025 180.75 9.5625C180.67 9.6225 180.565 9.6525 180.435 9.6525C180.32 9.6525 180.195 9.6175 180.06 9.5475C179.93 9.4725 179.78 9.39 179.61 9.3C179.445 9.21 179.255 9.13 179.04 9.06C178.825 8.985 178.58 8.9475 178.305 8.9475C177.83 8.9475 177.475 9.05 177.24 9.255C177.01 9.455 176.895 9.7275 176.895 10.0725C176.895 10.2925 176.965 10.475 177.105 10.62C177.245 10.765 177.428 10.89 177.653 10.995C177.883 11.1 178.143 11.1975 178.433 11.2875C178.728 11.3725 179.028 11.47 179.333 11.58C179.638 11.685 179.935 11.81 180.225 11.955C180.52 12.1 180.78 12.285 181.005 12.51C181.235 12.735 181.42 13.01 181.56 13.335C181.7 13.655 181.77 14.0425 181.77 14.4975C181.77 15.0025 181.683 15.475 181.508 15.915C181.333 16.355 181.078 16.74 180.743 17.07C180.413 17.395 180.003 17.6525 179.513 17.8425C179.028 18.0275 178.475 18.12 177.855 18.12C177.515 18.12 177.168 18.085 176.813 18.015C176.463 17.945 176.123 17.8475 175.793 17.7225C175.463 17.5925 175.153 17.44 174.863 17.265C174.573 17.09 174.32 16.895 174.105 16.68L174.855 15.495C174.91 15.405 174.988 15.3325 175.088 15.2775C175.188 15.2225 175.295 15.195 175.41 15.195C175.56 15.195 175.71 15.2425 175.86 15.3375C176.015 15.4325 176.188 15.5375 176.378 15.6525C176.573 15.7675 176.795 15.8725 177.045 15.9675C177.295 16.0625 177.59 16.11 177.93 16.11C178.39 16.11 178.748 16.01 179.003 15.81C179.258 15.605 179.385 15.2825 179.385 14.8425C179.385 14.5875 179.315 14.38 179.175 14.22C179.035 14.06 178.85 13.9275 178.62 13.8225C178.395 13.7175 178.138 13.625 177.848 13.545C177.558 13.465 177.26 13.3775 176.955 13.2825C176.65 13.1825 176.353 13.0625 176.063 12.9225C175.773 12.7775 175.513 12.59 175.283 12.36C175.058 12.125 174.875 11.835 174.735 11.49C174.595 11.14 174.525 10.71 174.525 10.2C174.525 9.79 174.608 9.39 174.773 9C174.938 8.61 175.18 8.2625 175.5 7.9575C175.82 7.6525 176.213 7.41 176.678 7.23C177.143 7.045 177.675 6.9525 178.275 6.9525C178.61 6.9525 178.935 6.98 179.25 7.035C179.57 7.085 179.873 7.1625 180.158 7.2675C180.443 7.3675 180.708 7.49 180.953 7.635C181.203 7.775 181.425 7.935 181.62 8.115L180.99 9.2925ZM193.815 12.5325C193.815 13.3225 193.677 14.0575 193.402 14.7375C193.132 15.4175 192.75 16.01 192.255 16.515C191.76 17.015 191.162 17.4075 190.462 17.6925C189.767 17.9775 188.995 18.12 188.145 18.12C187.295 18.12 186.52 17.9775 185.82 17.6925C185.12 17.4075 184.52 17.015 184.02 16.515C183.525 16.01 183.14 15.4175 182.865 14.7375C182.595 14.0575 182.46 13.3225 182.46 12.5325C182.46 11.7425 182.595 11.0075 182.865 10.3275C183.14 9.6475 183.525 9.0575 184.02 8.5575C184.52 8.0575 185.12 7.665 185.82 7.38C186.52 7.095 187.295 6.9525 188.145 6.9525C188.995 6.9525 189.767 7.0975 190.462 7.3875C191.162 7.6725 191.76 8.065 192.255 8.565C192.75 9.065 193.132 9.655 193.402 10.335C193.677 11.015 193.815 11.7475 193.815 12.5325ZM191.22 12.5325C191.22 11.9925 191.15 11.5075 191.01 11.0775C190.87 10.6425 190.667 10.275 190.402 9.975C190.142 9.675 189.822 9.445 189.442 9.285C189.062 9.125 188.63 9.045 188.145 9.045C187.655 9.045 187.217 9.125 186.832 9.285C186.452 9.445 186.13 9.675 185.865 9.975C185.605 10.275 185.405 10.6425 185.265 11.0775C185.125 11.5075 185.055 11.9925 185.055 12.5325C185.055 13.0775 185.125 13.5675 185.265 14.0025C185.405 14.4325 185.605 14.7975 185.865 15.0975C186.13 15.3975 186.452 15.6275 186.832 15.7875C187.217 15.9425 187.655 16.02 188.145 16.02C188.63 16.02 189.062 15.9425 189.442 15.7875C189.822 15.6275 190.142 15.3975 190.402 15.0975C190.667 14.7975 190.87 14.4325 191.01 14.0025C191.15 13.5675 191.22 13.0775 191.22 12.5325ZM202.062 7.0725V9.0225H197.577V11.79H201.312V13.7475H197.577V18H195.027V7.0725H202.062ZM211.312 7.0725V9.0825H208.237V18H205.702V9.0825H202.627V7.0725H211.312ZM211.531 7.0725H213.661C213.881 7.0725 214.064 7.1225 214.209 7.2225C214.359 7.3225 214.456 7.455 214.501 7.62L216.001 13.32C216.051 13.505 216.101 13.7025 216.151 13.9125C216.201 14.1225 216.239 14.3425 216.264 14.5725C216.314 14.3375 216.369 14.1175 216.429 13.9125C216.489 13.7025 216.546 13.505 216.601 13.32L218.371 7.62C218.416 7.48 218.511 7.355 218.656 7.245C218.806 7.13 218.986 7.0725 219.196 7.0725H219.946C220.166 7.0725 220.346 7.1225 220.486 7.2225C220.631 7.3175 220.731 7.45 220.786 7.62L222.541 13.32C222.596 13.495 222.654 13.6825 222.714 13.8825C222.774 14.0775 222.826 14.2875 222.871 14.5125C222.911 14.2925 222.951 14.0825 222.991 13.8825C223.036 13.6825 223.081 13.495 223.126 13.32L224.626 7.62C224.666 7.475 224.761 7.3475 224.911 7.2375C225.061 7.1275 225.241 7.0725 225.451 7.0725H227.446L224.071 18H221.776L219.721 11.2275C219.686 11.1225 219.649 11.0075 219.609 10.8825C219.574 10.7575 219.539 10.625 219.504 10.485C219.469 10.625 219.431 10.7575 219.391 10.8825C219.356 11.0075 219.321 11.1225 219.286 11.2275L217.201 18H214.906L211.531 7.0725ZM237.541 18H235.576C235.356 18 235.173 17.95 235.028 17.85C234.888 17.745 234.791 17.6125 234.736 17.4525L234.091 15.5475H229.936L229.291 17.4525C229.241 17.5925 229.143 17.72 228.998 17.835C228.853 17.945 228.676 18 228.466 18H226.486L230.716 7.0725H233.311L237.541 18ZM230.521 13.8225H233.506L232.501 10.83C232.436 10.64 232.358 10.4175 232.268 10.1625C232.183 9.9025 232.098 9.6225 232.013 9.3225C231.933 9.6275 231.851 9.91 231.766 10.17C231.681 10.43 231.601 10.655 231.526 10.845L230.521 13.8225ZM240.965 13.9575V18H238.43V7.0725H241.985C242.775 7.0725 243.448 7.155 244.003 7.32C244.563 7.48 245.018 7.705 245.368 7.995C245.723 8.285 245.98 8.6275 246.14 9.0225C246.3 9.4175 246.38 9.8475 246.38 10.3125C246.38 10.6675 246.333 11.0025 246.238 11.3175C246.143 11.6325 246 11.925 245.81 12.195C245.625 12.46 245.395 12.6975 245.12 12.9075C244.85 13.1175 244.538 13.29 244.183 13.425C244.353 13.51 244.51 13.615 244.655 13.74C244.805 13.865 244.935 14.0175 245.045 14.1975L247.37 18H245.075C244.65 18 244.345 17.84 244.16 17.52L242.345 14.3475C242.265 14.2075 242.17 14.1075 242.06 14.0475C241.955 13.9875 241.805 13.9575 241.61 13.9575H240.965ZM240.965 12.21H241.985C242.33 12.21 242.623 12.1675 242.863 12.0825C243.108 11.9925 243.308 11.87 243.463 11.715C243.618 11.56 243.73 11.38 243.8 11.175C243.87 10.965 243.905 10.74 243.905 10.5C243.905 10.02 243.748 9.645 243.433 9.375C243.123 9.105 242.64 8.97 241.985 8.97H240.965V12.21ZM255.441 7.0725V9.0225H250.956V11.5725H254.391V13.4475H250.956V16.05H255.441V18H248.406V7.0725H255.441Z" fill="black"/>
<path d="M93.2433 18.5946H83V6.64557H85.731V15.8637H93.2389L93.2433 18.5946Z" fill="black"/>
<path d="M106.727 18.5928H99.7295L98.5342 15.8619H102.456L100.325 11.0536L96.9896 18.5928H93.9274V15.8619H95.1406L99.2192 6.64377H101.44L106.727 18.5928Z" fill="black"/>
<path d="M118.503 18.5928H115.772L110.14 11.8147V18.5928H107.409V6.64377H110.145L115.772 13.413V6.64377H118.503V18.5928Z" fill="black"/>
<path d="M131.127 18.5883H125.154C123.502 18.5883 122.097 18.0063 120.928 16.8378C119.76 15.6738 119.178 14.2635 119.178 12.6115C119.178 10.964 119.76 9.55376 120.928 8.38527C122.092 7.22125 123.502 6.63477 125.154 6.63477H131.127V9.36573H125.154C124.255 9.36573 123.489 9.68359 122.858 10.3148C122.226 10.9461 121.909 11.7117 121.909 12.6115C121.909 13.5114 122.226 14.277 122.858 14.9082C123.489 15.5395 124.255 15.8574 125.154 15.8574H128.396V13.9815H126.69L125.495 11.2505H131.127V18.5883Z" fill="#DC0000"/>
<path d="M144.618 18.5928H137.62L136.425 15.8619H140.347L138.216 11.0536L134.88 18.5928H131.818V15.8619H133.031L137.11 6.64377H139.33L144.618 18.5928Z" fill="#DC0000"/>
<path d="M158.097 18.5928H155.366V13.1802L152.55 18.5884H150.844L148.028 13.1802V18.5884H145.297V6.64377H148.033L151.7 13.9815L155.366 6.64377H158.102V18.5928H158.097Z" fill="#DC0000"/>
<path d="M169.018 18.5928H158.78V6.64377H169.018V9.37473H161.511V11.2506H167.313V13.9815H161.511V15.8574H169.018V18.5928Z" fill="#DC0000"/>
</svg>
