<svg width="13" height="14" viewBox="0 0 13 14" fill="none" xmlns="http://www.w3.org/2000/svg">
<path opacity="0.5" fill-rule="evenodd" clip-rule="evenodd" d="M0.775 0H10.075C10.6916 0 11.283 0.244955 11.719 0.680977C12.155 1.117 12.4 1.70837 12.4 2.325V11.625C12.4 12.2416 12.155 12.833 11.719 13.269C11.283 13.705 10.6916 13.95 10.075 13.95H3.1V13.9502H1.55V13.95H0.775C0.569457 13.95 0.372333 13.8683 0.226992 13.723C0.0816517 13.5777 0 13.3805 0 13.175V0.775C0 0.569457 0.0816517 0.372333 0.226992 0.226992C0.372333 0.0816515 0.569457 0 0.775 0ZM1.55 12.4H7.75V1.55H1.55V12.4ZM10.623 12.173C10.7683 12.0277 10.85 11.8305 10.85 11.625V2.325C10.85 2.11946 10.7683 1.92233 10.623 1.77699C10.4777 1.63165 10.2805 1.55 10.075 1.55H9.3V12.4H10.075C10.2805 12.4 10.4777 12.3183 10.623 12.173Z" fill="black"/>
</svg>
