<svg width="14" height="14" viewBox="0 0 14 14" fill="none" xmlns="http://www.w3.org/2000/svg">
<path d="M6.3 6.28556C6.3 5.89896 6.6134 5.58556 7 5.58556C7.3866 5.58556 7.7 5.89896 7.7 6.28556V10.4856C7.7 10.8722 7.3866 11.1856 7 11.1856C6.6134 11.1856 6.3 10.8722 6.3 10.4856V6.28556Z" fill="white"/>
<path d="M7 2.8358C6.6134 2.8358 6.3 3.1492 6.3 3.5358C6.3 3.9224 6.6134 4.2358 7 4.2358C7.3866 4.2358 7.7 3.9224 7.7 3.5358C7.7 3.1492 7.3866 2.8358 7 2.8358Z" fill="white"/>
<path fill-rule="evenodd" clip-rule="evenodd" d="M7 0C3.13401 0 0 3.13401 0 7C0 10.866 3.13401 14 7 14C10.866 14 14 10.866 14 7C14 3.13401 10.866 0 7 0ZM1.4 7C1.4 10.0928 3.90721 12.6 7 12.6C10.0928 12.6 12.6 10.0928 12.6 7C12.6 3.90721 10.0928 1.4 7 1.4C3.90721 1.4 1.4 3.90721 1.4 7Z" fill="white"/>
</svg>
