<svg width="14" height="20" viewBox="0 0 14 20" fill="none" xmlns="http://www.w3.org/2000/svg">
<g opacity="0.5">
<path d="M3.81716 3.03719C3.81716 2.70706 3.9492 2.40994 4.18028 2.17885C4.41135 1.94776 4.70844 1.81571 5.03855 1.81571H9.29689C9.627 1.81571 9.92409 1.94776 10.1552 2.17885C10.3862 2.40994 10.5183 2.70706 10.5183 3.03719V6.09094C10.5183 6.5923 10.9247 6.99873 11.4261 6.99873C11.9274 6.99873 12.3339 6.5923 12.3339 6.09094V3.03719C12.3339 2.21186 12.0038 1.41955 11.4426 0.891348C10.8814 0.330129 10.1222 0 9.29689 0H5.03855C4.21329 0 3.42104 0.330129 2.89287 0.891348C2.33169 1.45257 2.00159 2.21186 2.00159 3.03719V6.09094C2.00159 6.5923 2.40802 6.99873 2.90937 6.99873C3.41073 6.99873 3.81716 6.5923 3.81716 6.09094V3.03719Z" fill="black"/>
<path d="M13.5013 8.60665C13.1712 8.28853 12.709 8.09766 12.2139 8.09766H1.81557C1.32042 8.09766 0.858272 8.28853 0.528167 8.60665C0.198063 8.92477 0 9.37013 0 9.84731V12.4877C0 14.3646 0.792251 16.0506 2.04665 17.2595C3.30104 18.4684 5.08361 19.2318 6.99821 19.2318C8.94583 19.2318 10.6954 18.4684 11.9498 17.2595C13.2042 16.0506 13.9964 14.3328 13.9964 12.4877V9.84731C14.0294 9.37013 13.8314 8.92477 13.5013 8.60665ZM12.2139 12.4877C12.2139 13.8556 11.6197 15.1281 10.6954 16.0188C9.73808 16.9096 8.45067 17.4822 7.03122 17.4822C5.61177 17.4822 4.29136 16.9096 3.36706 16.0188C2.44277 15.0963 1.84858 13.8556 1.84858 12.4877V9.84731H12.2139V12.4877Z" fill="black"/>
<ellipse cx="7" cy="13.1606" rx="1" ry="1.0122" fill="black"/>
</g>
</svg>
