<svg width="14" height="20" viewBox="0 0 14 20" fill="none" xmlns="http://www.w3.org/2000/svg">
<g opacity="0.5">
<mask id="path-1-inside-1_1_2010" fill="white">
<path d="M11.375 0H2.625C1.17833 0 0 1.12111 0 2.5V17.5C0 18.8789 1.17833 20 2.625 20H11.375C12.8217 20 14 18.8789 14 17.5V2.5C14 1.12111 12.8217 0 11.375 0ZM12.25 18.2119H1.75V2.5C1.75 2.04 2.14317 1.66667 2.625 1.66667H11.375C11.8568 1.66667 12.25 2.04 12.25 2.5V18.2119Z"/>
</mask>
<path d="M12.25 18.2119V20.2119H14.25V18.2119H12.25ZM1.75 18.2119H-0.25V20.2119H1.75V18.2119ZM11.375 -2H2.625V2H11.375V-2ZM2.625 -2C0.167431 -2 -2 -0.0748548 -2 2.5H2C2 2.31708 2.18924 2 2.625 2V-2ZM-2 2.5V17.5H2V2.5H-2ZM-2 17.5C-2 20.0749 0.167431 22 2.625 22V18C2.18924 18 2 17.6829 2 17.5H-2ZM2.625 22H11.375V18H2.625V22ZM11.375 22C13.8326 22 16 20.0749 16 17.5H12C12 17.6829 11.8108 18 11.375 18V22ZM16 17.5V2.5H12V17.5H16ZM16 2.5C16 -0.0748548 13.8326 -2 11.375 -2V2C11.8108 2 12 2.31708 12 2.5H16ZM12.25 16.2119H1.75V20.2119H12.25V16.2119ZM3.75 18.2119V2.5H-0.25V18.2119H3.75ZM3.75 2.5C3.75 3.23709 3.15288 3.66667 2.625 3.66667V-0.333333C1.13345 -0.333333 -0.25 0.842907 -0.25 2.5H3.75ZM2.625 3.66667H11.375V-0.333333H2.625V3.66667ZM11.375 3.66667C10.8471 3.66667 10.25 3.23709 10.25 2.5H14.25C14.25 0.842907 12.8666 -0.333333 11.375 -0.333333V3.66667ZM10.25 2.5V18.2119H14.25V2.5H10.25Z" fill="black" mask="url(#path-1-inside-1_1_2010)"/>
<rect x="6" y="14" width="2" height="2" rx="1" fill="black"/>
</g>
</svg>
