<svg width="19" height="15" viewBox="0 0 19 15" fill="none" xmlns="http://www.w3.org/2000/svg">
<mask id="path-1-outside-1_1_1956" maskUnits="userSpaceOnUse" x="0" y="0" width="19" height="15" fill="black">
<rect fill="white" width="19" height="15"/>
<path fill-rule="evenodd" clip-rule="evenodd" d="M7.90334 13.6029C7.77264 13.6029 7.65382 13.5594 7.55877 13.4725L1.14258 7.6165C0.952473 7.44267 0.952473 7.16019 1.14258 6.98636L7.55877 1.13037C7.74887 0.956542 8.0578 0.956542 8.24791 1.13037C8.43802 1.30421 8.43802 1.58669 8.24791 1.76052L2.61225 6.91367H17.4463C17.7524 6.91367 18.0006 7.16183 18.0006 7.46796C18.0006 7.77408 17.7524 8.02224 17.4463 8.02224H2.97649L8.24791 12.8423C8.43802 13.0162 8.43802 13.2987 8.24791 13.4725C8.15286 13.5594 8.03404 13.6029 7.90334 13.6029Z"/>
</mask>
<path fill-rule="evenodd" clip-rule="evenodd" d="M7.90334 13.6029C7.77264 13.6029 7.65382 13.5594 7.55877 13.4725L1.14258 7.6165C0.952473 7.44267 0.952473 7.16019 1.14258 6.98636L7.55877 1.13037C7.74887 0.956542 8.0578 0.956542 8.24791 1.13037C8.43802 1.30421 8.43802 1.58669 8.24791 1.76052L2.61225 6.91367H17.4463C17.7524 6.91367 18.0006 7.16183 18.0006 7.46796C18.0006 7.77408 17.7524 8.02224 17.4463 8.02224H2.97649L8.24791 12.8423C8.43802 13.0162 8.43802 13.2987 8.24791 13.4725C8.15286 13.5594 8.03404 13.6029 7.90334 13.6029Z" fill="black"/>
<path d="M7.55877 13.4725L7.96365 13.0297L7.96324 13.0293L7.55877 13.4725ZM1.14258 7.6165L0.737697 8.0593L0.738106 8.05967L1.14258 7.6165ZM1.14258 6.98636L0.738106 6.54319L0.737696 6.54356L1.14258 6.98636ZM7.55877 1.13037L7.96324 1.57354L7.96365 1.57317L7.55877 1.13037ZM8.24791 1.13037L7.84303 1.57317L7.84303 1.57317L8.24791 1.13037ZM8.24791 1.76052L7.84303 1.31772L7.84303 1.31772L8.24791 1.76052ZM2.61225 6.91367L2.20737 6.47087L1.06693 7.51367H2.61225V6.91367ZM2.97649 8.02224V7.42224H1.43116L2.5716 8.46504L2.97649 8.02224ZM8.24791 12.8423L8.6528 12.3996H8.6528L8.24791 12.8423ZM8.24791 13.4725L8.6528 13.9153L8.24791 13.4725ZM7.15388 13.9153C7.36668 14.1099 7.63277 14.2029 7.90334 14.2029V13.0029C7.90501 13.0029 7.91448 13.0033 7.92842 13.0085C7.94278 13.0139 7.9551 13.0219 7.96365 13.0297L7.15388 13.9153ZM0.738106 8.05967L7.15429 13.9157L7.96324 13.0293L1.54706 7.17333L0.738106 8.05967ZM0.737696 6.54356C0.287435 6.95528 0.287434 7.64759 0.737697 8.0593L1.54747 7.17371C1.57545 7.1993 1.6 7.24535 1.6 7.30143C1.6 7.35751 1.57545 7.40357 1.54747 7.42916L0.737696 6.54356ZM7.15429 0.687205L0.738106 6.54319L1.54706 7.42953L7.96324 1.57354L7.15429 0.687205ZM8.6528 0.687579C8.23346 0.30414 7.57322 0.30414 7.15388 0.687579L7.96365 1.57317C7.93841 1.59625 7.91475 1.6 7.90334 1.6C7.89193 1.6 7.86827 1.59625 7.84303 1.57317L8.6528 0.687579ZM8.6528 2.20331C9.10306 1.7916 9.10306 1.09929 8.6528 0.687579L7.84303 1.57317C7.81504 1.54758 7.79049 1.50153 7.79049 1.44545C7.79049 1.38937 7.81504 1.34331 7.84303 1.31772L8.6528 2.20331ZM3.01714 7.35647L8.6528 2.20331L7.84303 1.31772L2.20737 6.47087L3.01714 7.35647ZM2.61225 7.51367H17.4463V6.31367H2.61225V7.51367ZM17.4463 7.51367C17.4211 7.51367 17.4006 7.4932 17.4006 7.46796H18.6006C18.6006 6.83046 18.0838 6.31367 17.4463 6.31367V7.51367ZM17.4006 7.46796C17.4006 7.44271 17.4211 7.42224 17.4463 7.42224V8.62224C18.0838 8.62224 18.6006 8.10545 18.6006 7.46796H17.4006ZM17.4463 7.42224H2.97649V8.62224H17.4463V7.42224ZM8.6528 12.3996L3.38137 7.57945L2.5716 8.46504L7.84303 13.2851L8.6528 12.3996ZM8.6528 13.9153C9.10306 13.5036 9.10306 12.8113 8.6528 12.3996L7.84303 13.2851C7.81504 13.2596 7.79049 13.2135 7.79049 13.1574C7.79049 13.1013 7.81504 13.0553 7.84303 13.0297L8.6528 13.9153ZM7.90334 14.2029C8.17391 14.2029 8.43999 14.1099 8.6528 13.9153L7.84303 13.0297C7.85158 13.0219 7.86389 13.0139 7.87825 13.0085C7.8922 13.0033 7.90167 13.0029 7.90334 13.0029V14.2029Z" fill="black" mask="url(#path-1-outside-1_1_1956)"/>
</svg>
