<svg width="18" height="18" viewBox="0 0 18 18" fill="none" xmlns="http://www.w3.org/2000/svg">
<path opacity="0.5" d="M9 17.9999C7.63927 18.0037 6.29573 17.6958 5.07244 17.0998C4.62474 16.8821 4.19578 16.6277 3.78995 16.3393L3.66665 16.2493C2.5505 15.4255 1.63796 14.3569 0.99908 13.1255C0.338249 11.851 -0.0044934 10.4355 4.44802e-05 8.99991C4.44802e-05 4.0294 4.02949 0 9 0C13.9705 0 18 4.0294 18 8.99991C18.0044 10.4348 17.662 11.8496 17.0018 13.1237C16.3638 14.3543 15.4526 15.4226 14.3378 16.2466C13.9173 16.5544 13.4711 16.8254 13.0041 17.0566L12.9321 17.0926C11.708 17.6918 10.3628 18.0021 9 17.9999ZM9 13.4998C7.65134 13.4972 6.41492 14.2505 5.79873 15.4501C7.81597 16.4493 10.184 16.4493 12.2013 15.4501V15.4456C11.5843 14.2473 10.3478 13.4957 9 13.4998ZM9 11.6999C10.9495 11.7024 12.747 12.753 13.7061 14.4503L13.7196 14.4386L13.7322 14.4278L13.7169 14.4413L13.7079 14.4485C15.9839 12.4821 16.7978 9.30801 15.7487 6.48903C14.6997 3.67005 12.0088 1.80027 9.0009 1.80027C5.99305 1.80027 3.30215 3.67005 2.25308 6.48903C1.20402 9.30801 2.01787 12.4821 4.29395 14.4485C5.25357 12.752 7.05095 11.7022 9 11.6999ZM9 10.7999C7.0118 10.7999 5.40004 9.18813 5.40004 7.19993C5.40004 5.21172 7.0118 3.59996 9 3.59996C10.9882 3.59996 12.6 5.21172 12.6 7.19993C12.6 8.1547 12.2207 9.07036 11.5456 9.74549C10.8704 10.4206 9.95477 10.7999 9 10.7999ZM9 5.39995C8.0059 5.39995 7.20002 6.20583 7.20002 7.19993C7.20002 8.19403 8.0059 8.99991 9 8.99991C9.9941 8.99991 10.8 8.19403 10.8 7.19993C10.8 6.20583 9.9941 5.39995 9 5.39995Z" fill="black"/>
</svg>
