<svg width="11" height="7" viewBox="0 0 11 7" fill="none" xmlns="http://www.w3.org/2000/svg">
<path opacity="0.3" d="M10.7958 0.204074C10.6598 0.0679858 10.4987 -1.83564e-06 10.3124 -1.80308e-06L0.687552 -1.20215e-07C0.501235 -8.76387e-08 0.340164 0.0679876 0.204076 0.204076C0.0679877 0.340314 8.7665e-08 0.501385 1.20222e-07 0.687589C1.52772e-07 0.873756 0.0679878 1.03483 0.204076 1.17095L5.01652 5.9834C5.15276 6.11949 5.31383 6.18763 5.5 6.18763C5.68617 6.18763 5.84739 6.11949 5.98336 5.9834L10.7958 1.17091C10.9317 1.03482 11 0.873754 11 0.68755C11 0.501383 10.9317 0.340313 10.7958 0.204074Z" fill="black"/>
</svg>
