<svg width="42" height="42" viewBox="0 0 42 42" fill="none" xmlns="http://www.w3.org/2000/svg">
<path d="M30.6667 34.3333C30.6667 35.2538 29.9205 36 29 36H13.6667C12.7462 36 12 35.2538 12 34.3333C12 33.4129 12.7462 32.6667 13.6667 32.6667H16.3333V31H6.33333C4.49238 31 3 29.5076 3 27.6667V9.33333C3 7.49238 4.49238 6 6.33333 6H36.3333C38.1743 6 39.6667 7.49238 39.6667 9.33333V27.6667C39.6667 29.5076 38.1743 31 36.3333 31H26.3333V32.6667H29C29.9205 32.6667 30.6667 33.4129 30.6667 34.3333ZM7 10V27H36V10H7Z" fill="#349EEF"/>
</svg>
