<svg width="42" height="42" viewBox="0 0 42 42" fill="none" xmlns="http://www.w3.org/2000/svg">
<path opacity="0.2" d="M4 11.5599C4 7.3932 7.48041 4 11.7563 4H20.2611C24.5283 4 28 7.383 28 11.5429V30.4401C28 34.6085 24.5196 38 20.2419 38H11.7406C7.47169 38 4 34.617 4 30.4571V28.8591V11.5599Z" fill="#DC0000"/>
<path d="M37.6316 20.5368L32.8891 15.3971C32.399 14.867 31.6102 14.867 31.1217 15.4006C30.6347 15.9342 30.6364 16.7947 31.1249 17.3247L33.7234 20.1393H31.232H17.2497C16.5599 20.1393 16 20.7489 16 21.4998C16 22.2525 16.5599 22.8602 17.2497 22.8602H33.7234L31.1249 25.6748C30.6364 26.2049 30.6347 27.0653 31.1217 27.5989C31.3667 27.8657 31.6865 28 32.0078 28C32.3259 28 32.6457 27.8657 32.8891 27.6025L37.6316 22.4645C37.8669 22.2083 38 21.862 38 21.4998C38 21.1393 37.8669 20.793 37.6316 20.5368Z" fill="#DC0000"/>
</svg>
