<svg width="42" height="42" viewBox="0 0 42 42" fill="none" xmlns="http://www.w3.org/2000/svg">
<path d="M29.529 3H13.4895C7.218 3 3 7.403 3 13.952V29.0665C3 35.597 7.218 40 13.4895 40H29.529C35.8005 40 40 35.597 40 29.0665V13.952C40 7.403 35.8005 3 29.529 3Z" fill="#FF6B00"/>
<path fill-rule="evenodd" clip-rule="evenodd" d="M20.0133 13.5921C20.0133 14.4692 20.7248 15.1842 21.5964 15.1842C22.4934 15.1842 23.2067 14.4692 23.2067 13.5921C23.2067 12.7151 22.4934 12 21.6146 12C20.7321 12 20.0133 12.7151 20.0133 13.5921ZM23.1842 19.3655C23.1842 18.4885 22.4692 17.7734 21.5921 17.7734C20.7151 17.7734 20 18.4885 20 19.3655V27.408C20 28.285 20.7151 29.0001 21.5921 29.0001C22.4692 29.0001 23.1842 28.285 23.1842 27.408V19.3655Z" fill="#FAF5FF"/>
</svg>
