<svg width="42" height="42" viewBox="0 0 42 42" fill="none" xmlns="http://www.w3.org/2000/svg">
<path opacity="0.4" d="M26.8992 6H32.1003C34.2544 6 35.9998 7.7454 35.9998 9.89942V15.1006C35.9998 17.2546 34.2544 19 32.1003 19H26.8992C24.7452 19 22.9998 17.2546 22.9998 15.1006V9.89942C22.9998 7.7454 24.7452 6 26.8992 6Z" fill="#8A1FF9"/>
<path fill-rule="evenodd" clip-rule="evenodd" d="M9.89942 6H15.1006C17.2546 6 19 7.7454 19 9.89942V15.1006C19 17.2546 17.2546 19 15.1006 19H9.89942C7.7454 19 6 17.2546 6 15.1006V9.89942C6 7.7454 7.7454 6 9.89942 6ZM26.8994 23H32.1006C34.2546 23 36 24.7454 36 26.8994V32.1006C36 34.2531 34.2546 36 32.1006 36H26.8994C24.7454 36 23 34.2531 23 32.1006V26.8994C23 24.7454 24.7454 23 26.8994 23ZM15.1006 23H9.89942C7.7454 23 6 24.7454 6 26.8994V32.1006C6 34.2531 7.7454 36 9.89942 36H15.1006C17.2546 36 19 34.2531 19 32.1006V26.8994C19 24.7454 17.2546 23 15.1006 23Z" fill="#8A1FF9"/>
</svg>
