<svg width="42" height="42" viewBox="0 0 42 42" fill="none" xmlns="http://www.w3.org/2000/svg">
<path opacity="0.4" d="M23.2458 8.68407V9.04635C22.2747 9.02728 21.3036 9.02728 20.3324 9.02728V8.70314C20.3324 7.38751 19.2253 5.31974 17.9046 5.31974H15.9817C13.7869 5.31974 12 3.56556 12 1.43004C12 0.648284 12.6604 0 13.4567 0C14.2725 0 14.9134 0.648284 14.9134 1.43004C14.9134 2.00205 15.399 2.45967 15.9817 2.45967H17.9046C20.8374 2.47873 23.2264 5.824 23.2458 8.68407Z" fill="#00AE31"/>
<path fill-rule="evenodd" clip-rule="evenodd" d="M26.6698 9.05347C27.2842 9.06214 27.9001 9.07084 28.5182 9.07734C35.1585 9.07734 40 13.9498 40 20.6785V29.3214C40 36.0501 35.1585 40.9227 28.5182 40.9227C25.8582 40.9807 23.1982 41 20.5191 41C17.84 41 15.1418 40.9807 12.4818 40.9227C5.84151 40.9227 1 36.0501 1 29.3214V20.6785C1 13.9498 5.84151 9.07734 12.501 9.07734C15.0079 9.03867 17.5721 9 20.1747 9C21.1315 9 22.0883 9 23.0451 9.01934C24.2515 9.01934 25.4579 9.03636 26.6698 9.05347ZM18.4684 26.3807H16.429V28.4302C16.429 29.2229 15.7686 29.8804 14.9723 29.8804C14.1565 29.8804 13.5155 29.2229 13.5155 28.4302V26.3807H11.4567C10.6604 26.3807 10 25.7426 10 24.9305C10 24.1378 10.6604 23.4804 11.4567 23.4804H13.5155V21.4501C13.5155 20.6574 14.1565 20 14.9723 20C15.7686 20 16.429 20.6574 16.429 21.4501V23.4804H18.4684C19.2647 23.4804 19.9251 24.1378 19.9251 24.9305C19.9251 25.7426 19.2647 26.3807 18.4684 26.3807ZM26.7243 23.1143H26.9185C27.7149 23.1143 28.3752 22.4762 28.3752 21.6641C28.3752 20.8714 27.7149 20.214 26.9185 20.214H26.7243C25.9085 20.214 25.2676 20.8714 25.2676 21.6641C25.2676 22.4762 25.9085 23.1143 26.7243 23.1143ZM30.0446 29.7641H30.2388C31.0352 29.7641 31.6956 29.1261 31.6956 28.314C31.6956 27.5212 31.0352 26.8638 30.2388 26.8638H30.0446C29.2288 26.8638 28.5879 27.5212 28.5879 28.314C28.5879 29.1261 29.2288 29.7641 30.0446 29.7641Z" fill="#00AE31"/>
</svg>
